<?xml version="1.0" standalone="no"?><!DOCTYPE svg PUBLIC "-//W3C//DTD SVG 1.1//EN" "http://www.w3.org/Graphics/SVG/1.1/DTD/svg11.dtd"><svg t="1583120921578" class="icon" viewBox="0 0 1077 1024" version="1.1" xmlns="http://www.w3.org/2000/svg" p-id="11027" xmlns:xlink="http://www.w3.org/1999/xlink" width="134.625" height="128"><defs><style type="text/css"></style></defs><path d="M348.52349 556.912H116.23649A112.82 112.82 0 0 0 0.00349 669.552v236.419A117.131 117.131 0 0 0 116.23649 1024h232.287A118.748 118.748 0 0 0 467.09049 907.587V674.044a120.185 120.185 0 0 0-118.568-117.132zM395.23049 911.54a40.241 40.241 0 0 1-40.42 40.6H112.28349a40.241 40.241 0 0 1-40.42-40.6V669.193a40.241 40.241 0 0 1 40.42-40.421H354.81049a40.241 40.241 0 0 1 40.421 40.421z m219.352-749.856h423.613a38.086 38.086 0 0 0 39.702-35.93 38.086 38.086 0 0 0-39.702-35.93H614.58349a38.086 38.086 0 0 0-39.702 35.93 38.086 38.086 0 0 0 39.702 35.93zM348.52349 0H116.23649A117.131 117.131 0 0 0 0.00349 118.03v236.418A111.382 111.382 0 0 0 116.23649 465.65h232.287A118.748 118.748 0 0 0 467.09049 349.238V115.694A118.928 118.928 0 0 0 348.52349 0z m46.708 354.627a40.241 40.241 0 0 1-40.42 40.601H112.28349a40.241 40.241 0 0 1-40.42-40.6V112.1a40.241 40.241 0 0 1 40.42-40.241H354.81049a40.241 40.241 0 0 1 40.421 40.061z m219.172 22.636h423.793a37.547 37.547 0 0 0 39.702-35.93 37.906 37.906 0 0 0-39.702-35.93H614.40349a37.906 37.906 0 0 0-39.522 35.93 37.906 37.906 0 0 0 39.522 35.93z m423.793 269.474H614.58349a35.93 35.93 0 1 0 0 71.86h423.613a35.93 35.93 0 1 0 0-71.86z m0 215.579H614.40349a35.93 35.93 0 1 0 0 71.86h423.793a35.93 35.93 0 1 0 0-71.86z" p-id="11028"></path></svg>