<?xml version="1.0" standalone="no"?><!DOCTYPE svg PUBLIC "-//W3C//DTD SVG 1.1//EN" "http://www.w3.org/Graphics/SVG/1.1/DTD/svg11.dtd"><svg t="1671873211031" class="icon" viewBox="0 0 1099 1024" version="1.1" xmlns="http://www.w3.org/2000/svg" p-id="20617" xmlns:xlink="http://www.w3.org/1999/xlink" width="214.6484375" height="200"><path d="M625.784615 0h8.504616c27.126154 0.787692 54.104615 7.384615 78.338461 19.667692 37.575385 18.756923 68.393846 50.732308 85.624616 89.046154 18.621538 40.627692 21.587692 88.098462 8.393846 130.781539-12.972308 42.88-42.276923 80.467692-80.553846 103.72923-35.987692 22.24-79.766154 31.224615-121.636923 25.403077-33.427692-4.393846-65.44-18.449231-91.581539-39.692307-27.126154-22.030769-47.889231-51.852308-58.941538-85.021539-12.750769-38.116923-12.64-80.430769 0.344615-118.486154 12.726154-37.476923 37.895385-70.584615 70.547692-92.947692C554.350769 12.086154 589.92 0.763077 625.784615 0m-8.492307 94.473846c-33.92 4.209231-64.024615 29.218462-74.535385 61.723077-7.138462 21.316923-6.08 45.267692 3.04 65.833846 8.676923 19.815385 24.64 36.32 44.172308 45.661539 17.636923 8.553846 38.067692 11.064615 57.304615 7.298461 33.673846-6.24 62.301538-33.095385 70.781539-66.252307 5.218462-19.643077 3.741538-41.021538-4.344616-59.68-8.615385-20.209231-24.8-37.033846-44.627692-46.461539-15.975385-7.716923-34.227692-10.498462-51.790769-8.123077zM196.381538 79.741538c29.501538-3.630769 60.16 2.966154 85.476924 18.572308 27.052308 16.430769 47.926154 42.793846 57.563076 72.972308 10.264615 31.544615 8.184615 66.929231-5.846153 97.021538-14.030769 30.56-40.036923 55.409231-71.286154 67.876923-29.021538 11.790769-62.24 12.824615-91.963077 2.929231-30.067692-9.833846-56.209231-30.867692-72.48-57.969231-14.510769-24.036923-21.12-52.726154-18.535385-80.676923 2.695385-32.381538 17.956923-63.446154 41.710769-85.587692 20.529231-19.335385 47.335385-31.889231 75.36-35.138462zM58.227692 395.52c9.587692-2.215385 19.470769-1.587692 29.218462-1.673846h738.412308c20.578462-0.233846 41.033846 8.676923 54.867692 23.913846 12.443077 13.427692 19.532308 31.606154 19.458461 49.92 0.024615 34.276923 0.012308 68.553846 0.012308 102.843077 45.686154-26.252308 91.212308-52.8 136.972308-78.953846 0.356923-9.169231 0.049231-18.350769 0.147692-27.52 0.147692-6.572308-0.676923-13.378462 1.575385-19.692308 2.916923-9.107692 10.363077-16.590769 19.458461-19.556923 9.747692-3.347692 21.12-1.329231 29.083077 5.243077 6.892308 5.390769 10.756923 13.858462 11.643077 22.449231v501.00923c-0.664615 7.36-3.249231 14.744615-8.455385 20.135385-8.073846 8.910769-21.612308 12.209231-32.886153 8.024615-11.2-3.889231-19.556923-14.732308-20.295385-26.572307-0.393846-9.6 0.16-19.212308-0.270769-28.8-45.735385-26.178462-91.298462-52.664615-136.96-78.978462-0.049231 34.683077 0.036923 69.366154-0.036923 104.049231-0.184615 21.403077-10.4 42.387692-26.99077 55.876923-12.110769 10.067692-27.507692 15.815385-43.175384 16.763077H69.92c-19.126154-1.156923-37.735385-9.772308-50.584615-24.061538C7.815385 987.52 1.12 971.027692 0 954.190769V463.827692c0.8-10.658462 3.483077-21.243077 8.578462-30.683077 9.981538-19.015385 28.627692-33.206154 49.64923-37.624615m509.71077 242.904615c-12.910769 3.938462-22.498462 16.467692-22.953847 29.956923-0.676923 12.467692 6.412308 24.935385 17.513847 30.658462 9.981538 5.415385 22.732308 5.095385 32.430769-0.812308 13.661538-7.803077 19.889231-26.067692 13.735384-40.566154-5.858462-15.753846-24.812308-24.726154-40.726153-19.236923m130.473846 0c-12.923077 3.938462-22.510769 16.467692-22.966154 29.956923-0.676923 12.48 6.436923 24.972308 17.563077 30.683077 9.956923 5.390769 22.658462 5.070769 32.332307-0.812307 13.944615-7.913846 20.110769-26.695385 13.489231-41.329231-6.153846-15.335385-24.787692-23.889231-40.418461-18.498462m-508.27077 104.738462c-25.735385 4.836923-47.913846 24.529231-55.84 49.476923-4.036923 11.741538-4.061538 24.344615-3.433846 36.615385 1.390769 20 11.507692 39.163077 27.138462 51.704615 13.255385 10.88 30.4 16.713846 47.52 16.504615 157.981538 0.024615 315.963077 0 473.932308 0.012308 13.193846-0.098462 26.756923 0.886154 39.470769-3.433846 26.855385-8.123077 47.667692-32.824615 51.052307-60.676923 1.501538-16.123077 1.193846-33.083077-5.821538-48-9.304615-21.058462-29.033846-37.095385-51.556923-41.883077-9.673846-2.276923-19.655385-1.661538-29.501539-1.735385H216.615385c-8.836923 0.049231-17.772308-0.406154-26.473847 1.415385z" p-id="20618"></path></svg>