<?xml version="1.0" standalone="no"?><!DOCTYPE svg PUBLIC "-//W3C//DTD SVG 1.1//EN" "http://www.w3.org/Graphics/SVG/1.1/DTD/svg11.dtd"><svg t="1671763938429" class="icon" viewBox="0 0 1024 1024" version="1.1" xmlns="http://www.w3.org/2000/svg" p-id="3827" xmlns:xlink="http://www.w3.org/1999/xlink" width="128" height="128"><path d="M870.396 430.081h-10.24v-81.919C860.155 156.185 703.978 0.006 512 0.006S163.845 156.185 163.845 348.162c0 0.55 0.14 1.061 0.16 1.6h-0.16v80.319h-10.24c-79.049 0-143.358 64.31-143.358 143.358v307.196c0 79.049 64.31 143.358 143.358 143.358h716.791c79.049 0 143.358-64.31 143.358-143.358V573.439c0-79.048-64.31-143.358-143.358-143.358zM265.93 355.868c0.019-0.498 0.148-0.97 0.148-1.478 0-135.647 110.359-245.995 245.996-245.995 135.646 0 245.994 110.348 245.994 245.995v75.691h-491.99v-74.213h-0.148z m87.987 588.201L460.06 740.334h0.273C419.921 721.025 392 679.775 392 632c0-66.274 53.726-120 120-120s120 53.726 120 120c0 47.775-27.921 89.025-68.333 108.334h0.273l106.143 203.735H353.917z" p-id="3828"></path></svg>
