<?xml version="1.0" standalone="no"?><!DOCTYPE svg PUBLIC "-//W3C//DTD SVG 1.1//EN" "http://www.w3.org/Graphics/SVG/1.1/DTD/svg11.dtd"><svg t="1579395619893" class="icon" viewBox="0 0 1024 1024" version="1.1" xmlns="http://www.w3.org/2000/svg" p-id="3267" width="128" height="128" xmlns:xlink="http://www.w3.org/1999/xlink"><defs><style type="text/css"></style></defs><path d="M512 55.803815c61.663215 0 121.373297 11.99782 177.59564 35.853951 54.26921 23.019074 103.097548 55.943324 145.089919 97.796185 41.852861 41.852861 74.777112 90.681199 97.796185 145.089918 23.716621 56.082834 35.714441 115.792916 35.714441 177.456131s-11.99782 121.373297-35.853951 177.59564c-23.019074 54.26921-55.943324 103.097548-97.796185 145.089919-41.852861 41.852861-90.681199 74.777112-145.089918 97.796185-56.082834 23.716621-115.792916 35.714441-177.456131 35.714441s-121.373297-11.99782-177.59564-35.853951c-54.26921-23.019074-103.097548-55.943324-145.089919-97.796185s-74.777112-90.681199-97.796185-145.089918C67.801635 633.373297 55.803815 573.663215 55.803815 512s11.99782-121.373297 35.853951-177.59564c23.019074-54.26921 55.943324-103.097548 97.796185-145.089919 41.852861-41.852861 90.681199-74.777112 145.089918-97.796185C390.626703 67.801635 450.336785 55.803815 512 55.803815m0-55.803815C229.214169 0 0 229.214169 0 512s229.214169 512 512 512 512-229.214169 512-512S794.785831 0 512 0z" p-id="3268"></path><path d="M500.00218 309.571662v285.157493c-1.395095 78.40436-42.829428 118.304087-124.023978 119.699183-81.33406-1.395095-122.628883-41.294823-124.023979-119.699183V309.571662h56.640872v296.039237c1.395095 40.597275 23.99564 61.663215 67.522616 63.19782 43.526975-1.395095 65.988011-22.461035 67.522616-63.19782V309.571662h56.361853zM569.756948 712.335695V309.571662h202.428338v50.083924H626.258311v115.374387h145.926975V527.346049H626.258311v132.813079h145.926975v52.316076H569.756948z" p-id="3269"></path></svg>