<?xml version="1.0" standalone="no"?><!DOCTYPE svg PUBLIC "-//W3C//DTD SVG 1.1//EN" "http://www.w3.org/Graphics/SVG/1.1/DTD/svg11.dtd"><svg t="1571039985526" class="icon" viewBox="0 0 1037 1024" version="1.1" xmlns="http://www.w3.org/2000/svg" p-id="2693" xmlns:xlink="http://www.w3.org/1999/xlink" width="129.625" height="128"><defs><style type="text/css"></style></defs><path d="M2.046612 63.71616l0 636.851543 1018.949984 0L1020.996596 63.71616 2.046612 63.71616 2.046612 63.71616zM957.307042 636.896568 65.725934 636.896568 65.725934 127.404692l891.581108 0L957.307042 636.896568 957.307042 636.896568zM670.734234 764.240885 352.323301 764.240885 320.471872 891.6159l-63.688531 63.674205 509.476527 0-63.688531-63.674205L670.734234 764.240885 670.734234 764.240885zM670.734234 764.240885M743.482095 330.174861l-45.671179 0c-4.199649-15.10093-10.128685-29.427216-17.662265-42.798758l32.298614-32.267914c5.865591-5.895267 5.865591-15.531741 0-21.459754l-52.184523-52.1528c-2.963495-2.932796-6.886851-4.448312-10.744715-4.448312-3.860934 0-7.752568 1.481747-10.718109 4.448312l-32.268938 32.267914c-13.400195-7.534604-27.725458-13.46364-42.857087-17.664312l0-45.729507c0-8.367575-6.824429-15.162328-15.131629-15.162328l-73.829496 0c-8.367575 0-15.161305 6.856152-15.161305 15.162328l0 45.698808c-15.098883 4.169973-29.427216 10.127661-42.799782 17.633612l-32.266891-32.269961c-2.963495-2.932796-6.854105-4.414543-10.714016-4.414543-3.858888 0-7.78122 1.482771-10.715039 4.414543l-52.245921 52.216245c-5.898337 5.866614-5.898337 15.532765 0 21.459754l32.267914 32.267914c-7.532557 13.371542-13.46364 27.730575-17.663288 42.798758l-45.760207 0c-8.275477 0-15.131629 6.885827-15.131629 15.222703l0 73.769121c0 8.367575 6.856152 15.129582 15.131629 15.129582l45.698808 0c4.200672 15.099906 10.127661 29.429263 17.664312 42.830481l-32.30066 32.266891c-5.865591 5.865591-5.865591 15.532765 0 21.462824l52.218292 52.153824c2.931772 2.963495 6.852058 4.445242 10.712993 4.445242 3.858888 0 7.751544-1.481747 10.715039-4.445242l32.267914-32.269961c13.369495 7.504928 27.697829 13.461593 42.798758 17.632589l0 45.698808c0 8.336876 6.853082 15.130605 15.129582 15.130605l73.798796 0c8.368598 0 15.130605-6.856152 15.130605-15.130605l0-45.698808c15.09786-4.200672 29.458939-10.127661 42.829458-17.632589l32.268938 32.269961c2.963495 2.963495 6.852058 4.445242 10.715039 4.445242 3.858888 0 7.78122-1.481747 10.745738-4.445242l52.277644-52.153824c5.895267-5.869684 5.895267-15.532765 0-21.462824l-32.268938-32.266891c7.502881-13.401218 13.462616-27.698852 17.631566-42.830481l45.699832 0c8.370645 0 15.129582-6.853082 15.129582-15.129582l0-73.769121C758.641353 337.060689 751.817947 330.174861 743.482095 330.174861L743.482095 330.174861zM727.763089 403.447678l-30.043247 0-23.435759 0-6.330172 22.575158c-3.523243 12.69002-8.523117 24.825408-14.792914 35.939537l-11.54801 20.410865 16.613376 16.613376 21.179368 21.181415-29.952172 29.986965L628.241444 528.939811l-16.58063-16.5837-20.410865 11.519358c-11.146874 6.268774-23.251563 11.302417-35.94056 14.82259l-22.604834 6.297426 0 23.469528 0 29.952172-42.364877 0 0-30.014594 0-23.434735-22.573111-6.331195c-12.691043-3.52222-24.795732-8.523117-35.94363-14.792914l-20.410865-11.54801-16.613376 16.614399-21.181415 21.180392-29.952172-29.982872 21.181415-21.181415 16.613376-16.613376-11.549034-20.380166c-6.299473-11.145851-11.301394-23.283286-14.82259-35.941584l-6.330172-22.574135L325.322343 403.416979l-29.921473 0 0-42.394552 30.013571 0 23.469528 0 6.330172-22.572088c3.489474-12.691043 8.491395-24.794709 14.790868-35.94363l11.54801-20.409842-16.641005-16.613376-21.153786-21.182438 29.952172-29.982872 21.183462 21.181415 16.61133 16.613376 20.380166-11.517311c11.147898-6.300496 23.282263-11.301394 35.94363-14.823614l22.572088-6.330172L490.401076 195.97644l0-29.891797 42.364877 0 0 30.013571 0 23.438828 22.633486 6.331195c12.691043 3.51915 24.827455 8.550747 35.94363 14.81952l20.409842 11.549034 16.581654-16.61133 21.212114-21.183462 29.986965 29.951149-21.214161 21.184485-16.58063 16.610306 11.515265 20.411889c6.266727 11.146874 11.301394 23.251563 14.789844 35.94363l6.331195 22.570042 23.469528 0 29.919427 0L727.764112 403.447678 727.763089 403.447678zM511.551792 289.598724c-51.135634 0-92.635817 41.502229-92.635817 92.63684 0 51.133587 41.501206 92.63377 92.635817 92.63377 51.164287 0 92.635817-41.500183 92.635817-92.63377C604.218308 331.100954 562.716078 289.598724 511.551792 289.598724L511.551792 289.598724zM555.243897 425.927669c-11.669784 11.672854-27.14115 18.095124-43.692105 18.095124-16.489556 0-31.989575-6.421246-43.662429-18.095124-11.672854-11.670807-18.095124-27.172873-18.095124-43.661406 0-16.521279 6.391571-31.988552 18.095124-43.693128 11.672854-11.673877 27.173896-18.095124 43.662429-18.095124 16.521279 0 32.022321 6.421246 43.692105 18.095124 11.673877 11.672854 18.098193 27.172873 18.098193 43.693128C573.34209 398.754796 566.917774 414.256862 555.243897 425.927669L555.243897 425.927669zM555.243897 425.927669" p-id="2694"></path></svg>