<?xml version="1.0" standalone="no"?><!DOCTYPE svg PUBLIC "-//W3C//DTD SVG 1.1//EN" "http://www.w3.org/Graphics/SVG/1.1/DTD/svg11.dtd"><svg t="1571039893925" class="icon" viewBox="0 0 1024 1024" version="1.1" xmlns="http://www.w3.org/2000/svg" p-id="2476" xmlns:xlink="http://www.w3.org/1999/xlink" width="128" height="128"><defs><style type="text/css"></style></defs><path d="M990.72 229.888c18.432-71.168 27.136-206.336-99.84-225.28-104.96-10.24-228.352 54.272-290.816 98.304-18.432-3.584-44.032-5.12-66.048-5.12-165.888-3.584-273.92 50.688-368.64 171.008-33.792 44.032-64.512 116.736-74.24 198.144C138.24 389.12 282.112 245.248 432.64 187.904c0 0-229.888 160.768-342.016 387.584v3.584c-5.12 10.24-11.776 18.432-16.896 32.256-111.616 268.8-18.432 385.536 64.512 404.48 77.824 18.432 185.856-16.896 272.384-108.032 146.944 32.256 294.4-5.12 346.624-32.256 103.424-54.272 174.08-154.112 190.976-255.488H665.6S652.288 706.56 501.248 706.56c-138.752 0-146.944-157.184-146.944-157.184h599.04s11.776-171.008-74.24-284.16c-50.688-62.464-113.152-120.32-203.264-148.992 27.136-18.432 74.24-50.688 116.736-59.392 77.824-18.432 126.976-8.704 160.768 49.152 44.032 76.288-25.6 248.832-25.6 248.832s40.96-51.712 62.976-124.928zM370.176 896.512c-120.32 94.72-216.576 84.48-255.488 27.136-33.792-50.688-38.912-138.752 0-260.608 18.432 45.568 47.616 93.184 89.6 133.632 49.152 49.152 106.496 81.408 165.888 99.84z m-5.12-490.496s5.12-113.152 130.048-121.856c111.616-10.24 165.888 37.376 182.784 126.976l-312.832-5.12z" p-id="2477"></path></svg>